<svg width="144" height="40" viewBox="0 0 144 40" fill="none" xmlns="http://www.w3.org/2000/svg">
<g clip-path="url(#clip0_9318_42345)">
<path d="M10 31.953L36.9999 16.4322C48.9894 9.51849 64 18.1724 64 31.953H52.9545V20.0067L32.1381 32H10V31.953Z" fill="#0002A1"/>
<path d="M62 8L34.9999 23.5614C23.0104 30.4932 8 21.8166 8 8H19.0454V20.0247L39.8618 8H62Z" fill="#06E58D"/>
</g>
<path d="M110.092 31.5715C109.354 31.3572 108.8 31 108.369 30.5714C107.938 30.1429 107.631 29.5715 107.446 28.9286C107.262 28.2858 107.2 27.5715 107.2 26.7858V8H110.892V26.0714C110.892 26.5 110.954 26.9286 111.015 27.2143C111.077 27.5001 111.2 27.7857 111.385 28C111.569 28.2143 111.815 28.3572 112.123 28.5C112.431 28.6429 112.861 28.7143 113.354 28.7858L112.861 31.9286C111.754 31.9286 110.831 31.7857 110.092 31.5715Z" fill="#0002A1"/>
<path d="M75.8771 22.6428H85.046V31.5714H88.9231V9.99997H85.046V19H75.8771V9.99997H72V31.5714H75.8771V22.6428Z" fill="#0002A1"/>
<path d="M92.8616 29.8571C93.354 30.5 94.0924 31.0714 94.954 31.4286C95.8156 31.7857 96.9232 32 98.154 32C99.5076 32 100.8 31.9286 101.908 31.7143C102.132 31.6731 102.348 31.6346 102.554 31.5977C103.422 31.4426 104.13 31.3159 104.677 31.1428V15.2857H100.985V28.5C100.738 28.5714 100.369 28.6429 99.8767 28.6429C99.3849 28.7143 98.8924 28.7143 98.4619 28.7143C97.2311 28.7143 96.3694 28.3571 95.8156 27.5714C95.3232 26.8571 95.0773 25.5714 95.0773 23.8571V15.2857H91.3848V24.4285C91.3848 25.5 91.508 26.5714 91.6926 27.5C91.9386 28.3571 92.3078 29.2142 92.8616 29.8571Z" fill="#0002A1"/>
<path d="M115.508 29.8571C116 30.5 116.738 31.0714 117.6 31.4286C118.462 31.7857 119.569 32 120.8 32C122.154 32 123.446 31.9286 124.554 31.7143C124.778 31.6731 124.994 31.6346 125.2 31.5977C126.068 31.4425 126.776 31.316 127.323 31.1428V15.2857H123.631V28.5C123.384 28.5714 123.015 28.6429 122.523 28.6429C122.031 28.7143 121.539 28.7143 121.107 28.7143C119.877 28.7143 119.016 28.3571 118.462 27.5714C117.969 26.8571 117.723 25.5714 117.723 23.8571V15.2857H114.031V24.4285C114.031 25.5 114.154 26.5714 114.338 27.5C114.646 28.3571 115.015 29.2142 115.508 29.8571Z" fill="#0002A1"/>
<path d="M132.739 31.5715C132 31.3572 131.446 31 131.015 30.5714C130.585 30.1429 130.277 29.5715 130.092 28.9286C129.908 28.2858 129.846 27.5715 129.846 26.7858V8H133.538V26.0714C133.538 26.5 133.6 26.9286 133.662 27.2143C133.723 27.5001 133.846 27.7857 134.031 28C134.215 28.2143 134.461 28.3572 134.769 28.5C135.077 28.6429 135.508 28.7143 136 28.7858L135.508 31.9286C134.4 31.9286 133.477 31.7857 132.739 31.5715Z" fill="#0002A1"/>
<defs>
<clipPath id="clip0_9318_42345">
<rect width="56" height="24" fill="white" transform="translate(8 8)"/>
</clipPath>
</defs>
</svg>
