<svg width="144" height="40" viewBox="0 0 144 40" fill="none" xmlns="http://www.w3.org/2000/svg">
<path fill-rule="evenodd" clip-rule="evenodd" d="M27.0683 19.4505C27.0683 21.9028 28.7614 23.7532 31.0051 23.7532H33.8934H33.9165V15.4084H30.9922C28.7925 15.4084 27.0683 17.1838 27.0683 19.4505ZM68.1157 12.9213C68.9133 13.1466 69.5988 13.5208 70.172 14.0429C70.746 14.5652 71.1935 15.2616 71.516 16.1323C71.8389 17.0027 72 18.0837 72 19.374C72 20.7462 71.9147 22.752 71.745 23.8993C71.5746 25.0463 71.4088 25.9784 71.2474 26.6954H56.7227H48.821C47.7189 26.6775 46.8048 26.5695 46.0789 26.3718C45.6892 26.2638 45.3444 26.1291 45.0398 25.9715C44.735 26.1291 44.3899 26.2638 44.0002 26.3718C43.2745 26.5695 42.3607 26.6775 41.2584 26.6954H37.6046C37.3745 30.1203 34.5275 32 30.3953 32C28.5051 32 27.1708 31.5031 25.3705 30.5857L25.1062 30.4508L25.4316 27.4955L25.9979 27.8246C27.3276 28.5976 28.9711 29.0577 30.3953 29.0577C32.6302 29.0577 33.7283 28.3251 33.8934 26.6954H30.4786C26.4886 26.6954 23.3633 23.4894 23.3633 19.398C23.3633 15.5768 26.477 12.5834 30.4521 12.5834H37.6215V23.7532H41.9976C42.6518 23.7532 43.1848 23.2181 43.1848 22.5571V8.00039L46.8899 8V22.5571C46.8899 23.2181 47.4231 23.7532 48.0817 23.7532H56.7227H67.9667C68.0204 23.5073 68.1923 21.6116 68.2276 21.1097C68.2639 20.6079 68.2815 20.1314 68.2815 19.6809C68.2815 18.4313 67.9591 17.5559 67.3137 17.054C66.6688 16.5521 65.5934 16.3013 64.0879 16.3013H56.7227V12.5834H65.495C66.4447 12.5834 67.3184 12.6957 68.1157 12.9213ZM16.4963 29.1134C16.9963 29.0778 17.369 29.0327 17.614 28.9786V8.00057L21.3186 8.00018V31.2447C20.6041 31.4067 19.6751 31.5731 18.5324 31.744C17.3892 31.9144 16.1338 32 14.7667 32C13.4808 32 12.4036 31.8383 11.5366 31.5143C10.6689 31.1906 9.97499 30.7415 9.45434 30.1655C8.93408 29.5903 8.56143 28.9023 8.33697 28.1018C8.11213 27.3017 8 26.4249 8 25.4718V20.1204H11.7049V24.9589C11.7049 26.4698 11.9547 27.549 12.4548 28.1963C12.955 28.8439 13.8273 29.1675 15.0725 29.1675C15.5214 29.1675 15.996 29.1498 16.4963 29.1134Z" fill="#0002A1"/>
<g clip-path="url(#clip0_9318_42346)">
<path d="M82 31.953L109 16.4322C120.989 9.51849 136 18.1724 136 31.953H124.954V20.0067L104.138 32H82V31.953Z" fill="#0002A1"/>
<path d="M134 8L107 23.5614C95.0104 30.4932 80 21.8166 80 8H91.0454V20.0247L111.862 8H134Z" fill="#06E58D"/>
</g>
<defs>
<clipPath id="clip0_9318_42346">
<rect width="56" height="24" fill="white" transform="translate(80 8)"/>
</clipPath>
</defs>
</svg>
